<?xml version="1.0" encoding="UTF-8"?>
<svg xmlns="http://www.w3.org/2000/svg" xmlns:xlink="http://www.w3.org/1999/xlink" width="32px" height="32px" viewBox="0 0 32 32" version="1.1">
<g id="surface1">
<path style=" stroke:none;fill-rule:nonzero;fill:rgb(0%,0%,0%);fill-opacity:1;" d="M 28.464844 27.722656 C 28.15625 27.40625 27.566406 26.738281 27.089844 25.808594 C 26.191406 24.070312 26.058594 22.234375 26.699219 20.363281 C 27.359375 18.429688 27.679688 16.574219 27.65625 14.847656 L 27.65625 14.78125 C 27.65625 8.101562 22.222656 2.667969 15.542969 2.667969 C 8.863281 2.667969 3.429688 8.101562 3.429688 14.78125 C 3.429688 21.460938 8.863281 26.894531 15.542969 26.894531 C 18.882812 26.894531 21.992188 25.566406 24.300781 23.152344 C 24.371094 24.414062 24.71875 25.648438 25.335938 26.816406 C 25.964844 28.003906 26.71875 28.835938 27.109375 29.226562 C 27.179688 29.292969 27.273438 29.332031 27.371094 29.332031 C 27.378906 29.332031 27.382812 29.332031 27.390625 29.332031 C 27.492188 29.328125 27.589844 29.28125 27.65625 29.203125 L 28.484375 28.222656 C 28.609375 28.078125 28.601562 27.859375 28.464844 27.722656 Z M 10.390625 11.808594 C 10.039062 12.417969 9.378906 12.796875 8.671875 12.796875 C 8.328125 12.796875 7.984375 12.707031 7.683594 12.53125 C 7.226562 12.269531 6.898438 11.839844 6.761719 11.328125 C 6.625 10.816406 6.695312 10.285156 6.957031 9.824219 C 7.3125 9.214844 7.96875 8.832031 8.675781 8.832031 C 9.023438 8.832031 9.363281 8.925781 9.667969 9.097656 C 10.613281 9.644531 10.9375 10.859375 10.390625 11.808594 Z M 6.761719 18.230469 C 6.898438 17.722656 7.226562 17.292969 7.683594 17.027344 C 7.984375 16.855469 8.328125 16.761719 8.671875 16.761719 C 9.378906 16.761719 10.039062 17.144531 10.390625 17.753906 C 10.9375 18.699219 10.613281 19.914062 9.667969 20.460938 C 9.363281 20.636719 9.023438 20.726562 8.675781 20.726562 C 7.96875 20.726562 7.3125 20.347656 6.957031 19.738281 C 6.695312 19.277344 6.625 18.742188 6.761719 18.230469 Z M 15.542969 20.726562 C 16.070312 20.726562 16.570312 20.933594 16.945312 21.308594 C 17.316406 21.683594 17.523438 22.179688 17.523438 22.710938 C 17.523438 23.804688 16.636719 24.691406 15.542969 24.691406 C 14.449219 24.691406 13.558594 23.804688 13.558594 22.710938 C 13.558594 21.617188 14.449219 20.726562 15.542969 20.726562 Z M 15.542969 8.832031 C 14.449219 8.832031 13.558594 7.945312 13.558594 6.851562 C 13.558594 5.757812 14.449219 4.871094 15.542969 4.871094 C 16.636719 4.871094 17.523438 5.757812 17.523438 6.851562 C 17.523438 7.945312 16.636719 8.832031 15.542969 8.832031 Z M 15.542969 12.191406 C 16.96875 12.191406 18.128906 13.355469 18.128906 14.78125 C 18.128906 16.207031 16.96875 17.367188 15.542969 17.367188 C 14.113281 17.367188 12.953125 16.207031 12.953125 14.78125 C 12.953125 13.355469 14.113281 12.191406 15.542969 12.191406 Z M 23.402344 12.53125 C 23.097656 12.707031 22.757812 12.796875 22.410156 12.796875 C 21.703125 12.796875 21.046875 12.417969 20.691406 11.808594 C 20.144531 10.859375 20.472656 9.644531 21.417969 9.097656 C 21.71875 8.925781 22.0625 8.832031 22.40625 8.832031 C 23.113281 8.832031 23.773438 9.214844 24.125 9.824219 C 24.671875 10.773438 24.347656 11.984375 23.402344 12.53125 Z M 20.691406 17.753906 C 21.046875 17.144531 21.703125 16.761719 22.410156 16.761719 C 22.757812 16.761719 23.097656 16.855469 23.402344 17.027344 C 23.859375 17.292969 24.1875 17.71875 24.324219 18.234375 C 24.460938 18.746094 24.390625 19.277344 24.125 19.738281 C 23.773438 20.347656 23.113281 20.726562 22.40625 20.726562 C 22.0625 20.726562 21.71875 20.636719 21.417969 20.460938 C 20.472656 19.914062 20.144531 18.699219 20.691406 17.753906 Z M 20.691406 17.753906 "/>
</g>
</svg>
